<?xml version="1.0" standalone="no"?>
<!DOCTYPE svg PUBLIC "-//W3C//DTD SVG 20010904//EN"
 "http://www.w3.org/TR/2001/REC-SVG-20010904/DTD/svg10.dtd">
<svg version="1.0" xmlns="http://www.w3.org/2000/svg"
 width="171.000000pt" height="171.000000pt" viewBox="0 0 171.000000 171.000000"
 preserveAspectRatio="xMidYMid meet">
<metadata>
Created by potrace 1.11, written by Peter Selinger 2001-2013
</metadata>
<g transform="translate(0.000000,171.000000) scale(0.100000,-0.100000)"
fill="#000000" stroke="none">
<path d="M606 1695 c-10 -8 -23 -12 -28 -9 -5 3 -7 2 -6 -3 2 -5 -15 -25 -37
-43 -22 -19 -48 -43 -57 -54 -10 -10 -18 -15 -18 -11 0 5 12 22 27 37 15 15
22 28 16 28 -20 0 -72 -69 -81 -107 -5 -21 -15 -60 -22 -88 -15 -59 -15 -64
-5 -90 8 -20 8 -20 -11 0 -10 12 -16 16 -12 10 11 -17 6 -74 -6 -72 -6 1 -9
-5 -7 -13 2 -8 3 -25 3 -37 0 -13 4 -23 9 -23 5 0 9 -7 9 -16 0 -8 4 -12 10
-9 6 4 8 -6 6 -24 -2 -17 2 -32 8 -35 7 -3 6 -8 -4 -15 -8 -6 -10 -11 -5 -11
6 0 10 -16 10 -35 0 -19 -3 -35 -6 -35 -3 0 -2 -28 2 -62 4 -35 7 -65 7 -68 0
-3 1 -7 2 -10 1 -3 4 -36 5 -75 2 -38 6 -110 10 -160 5 -49 9 -109 9 -132 1
-24 4 -43 9 -43 4 0 7 -9 7 -20 0 -12 7 -34 15 -51 9 -16 13 -35 9 -41 -4 -7
-3 -8 4 -4 11 7 17 -6 13 -27 -1 -5 3 -6 8 -3 5 3 20 -9 34 -27 37 -49 108
-118 140 -137 16 -10 28 -20 28 -24 -2 -17 0 -20 8 -8 7 11 11 11 22 -1 8 -7
20 -12 27 -9 6 2 12 -1 12 -6 0 -6 -5 -12 -12 -14 -7 -3 -4 -7 7 -12 11 -4 16
-4 12 0 -4 5 2 13 15 20 18 10 27 9 45 -3 22 -14 23 -14 17 3 -4 11 -3 16 1
11 5 -4 19 0 31 8 17 11 25 12 30 3 5 -7 3 -8 -6 -3 -9 6 -11 4 -5 -5 6 -9 4
-11 -5 -5 -9 5 -11 4 -6 -4 6 -8 12 -9 20 -2 7 6 16 7 21 3 4 -4 2 4 -5 17 -8
15 -8 21 -1 17 6 -4 11 -2 11 4 0 7 7 7 23 -1 17 -9 20 -9 11 1 -9 9 -2 21 29
48 22 21 42 36 45 34 4 -2 10 7 15 20 8 21 9 22 21 6 20 -28 29 -21 10 7 -10
15 -12 25 -5 25 6 0 11 -6 11 -12 0 -7 7 -2 16 11 13 17 14 25 5 34 -9 9 -11
8 -6 -4 7 -19 -10 -35 -20 -19 -3 5 -1 10 4 10 6 0 10 6 8 13 -1 6 6 11 15 11
10 -1 15 2 12 7 -3 5 0 19 7 31 8 16 9 23 1 26 -8 2 -8 10 0 27 6 14 14 22 19
20 4 -3 11 -1 14 5 4 6 1 9 -6 8 -18 -5 -22 18 -4 35 17 18 20 31 5 22 -7 -4
-9 2 -5 17 4 13 7 45 8 70 2 36 5 44 15 36 9 -8 11 -7 6 6 -3 9 -10 16 -16 16
-5 0 -6 5 -3 10 5 8 12 7 23 -2 14 -12 14 -10 -1 12 -19 29 -19 40 -4 59 9 12
9 13 0 7 -7 -4 -13 -2 -13 3 0 6 8 11 18 12 10 0 12 3 5 6 -17 6 -17 33 0 33
7 0 8 3 2 8 -14 10 -17 32 -5 32 6 0 10 -4 10 -10 0 -5 6 -10 13 -10 6 1 2 9
-10 19 -21 17 -21 19 -4 24 20 5 24 34 4 34 -9 0 -10 -4 -2 -14 6 -7 8 -13 4
-13 -9 0 -34 31 -35 43 0 4 5 7 11 7 5 0 7 -4 4 -10 -3 -6 1 -7 10 -4 14 6 14
8 -2 19 -24 17 -27 75 -4 68 14 -4 13 -3 -1 7 -9 6 -15 17 -12 25 4 8 2 15 -3
15 -5 0 -10 7 -10 15 0 8 4 12 9 9 4 -3 8 0 8 5 0 6 -4 11 -10 11 -15 0 -12
40 3 40 7 0 5 5 -5 10 -10 6 -15 19 -13 30 2 11 -1 20 -7 20 -7 0 -4 6 7 13
14 11 15 16 5 22 -9 5 -11 4 -6 -3 4 -7 2 -12 -4 -12 -13 0 -9 32 5 43 6 4 4
11 -5 17 -8 5 -10 10 -4 10 5 0 16 -6 23 -12 11 -11 12 -10 6 1 -6 11 -4 13 9
8 10 -4 15 -3 11 3 -3 6 -12 10 -20 10 -8 0 -13 9 -12 20 1 11 5 20 10 20 5 0
3 8 -4 18 -11 14 -11 15 1 5 22 -20 26 -16 26 25 -1 24 -8 43 -21 55 -20 18
-20 18 3 14 12 -3 22 -1 22 4 0 5 -15 9 -32 10 -28 0 -30 2 -13 9 19 9 19 9
-2 16 -13 3 -23 10 -23 15 0 13 14 11 28 -3 6 -6 15 -8 19 -4 15 15 -95 86
-146 94 -14 2 -32 7 -42 13 -10 5 -25 6 -33 3 -9 -3 -16 -3 -16 0 0 4 10 11
23 16 18 7 18 9 4 9 -10 1 -16 5 -13 10 3 5 -25 8 -63 7 -46 -1 -68 2 -64 9 3
5 0 5 -7 -2 -9 -8 -19 -9 -32 -2 -12 6 -30 7 -54 0 -32 -9 -34 -8 -22 6 12 15
11 15 -9 5 -31 -17 -40 -15 -17 4 10 8 14 13 8 10 -21 -11 -104 -15 -98 -5 3
5 9 7 13 5 4 -3 8 1 8 9 0 8 -1 15 -1 15 -1 0 -10 -7 -20 -15z m524 -173 c0
-5 -7 -9 -15 -9 -8 0 -12 4 -9 9 3 4 9 8 15 8 5 0 9 -4 9 -8z m0 -1132 c-6
-11 -13 -20 -16 -20 -2 0 0 9 6 20 6 11 13 20 16 20 2 0 0 -9 -6 -20z"/>
<path d="M1175 1250 c3 -5 8 -10 11 -10 2 0 4 5 4 10 0 6 -5 10 -11 10 -5 0
-7 -4 -4 -10z"/>
<path d="M1210 810 c-9 -6 -10 -10 -3 -10 6 0 15 5 18 10 8 12 4 12 -15 0z"/>
<path d="M1187 606 c-4 -10 -1 -13 8 -9 8 3 12 9 9 14 -7 12 -11 11 -17 -5z"/>
<path d="M1190 540 c6 -11 13 -20 16 -20 2 0 0 9 -6 20 -6 11 -13 20 -16 20
-2 0 0 -9 6 -20z"/>
<path d="M1011 216 c-22 -23 -29 -36 -21 -41 6 -4 14 -4 17 -1 4 3 1 6 -6 6
-7 0 -9 5 -6 10 5 8 12 7 23 -2 15 -11 15 -11 4 4 -8 10 -9 19 -3 22 5 3 11 0
14 -6 2 -7 8 -9 13 -5 5 4 2 12 -6 17 -14 9 -7 14 13 11 5 -1 6 3 2 9 -8 14
-7 14 -44 -24z"/>
<path d="M950 150 c0 -5 5 -10 11 -10 5 0 7 5 4 10 -3 6 -8 10 -11 10 -2 0 -4
-4 -4 -10z"/>
<path d="M715 130 c-3 -5 -1 -10 4 -10 6 0 11 5 11 10 0 6 -2 10 -4 10 -3 0
-8 -4 -11 -10z"/>
<path d="M801 116 c-9 -10 -9 -16 -1 -21 6 -4 10 -3 9 2 -3 20 2 27 11 13 6
-9 10 -10 10 -3 0 19 -17 24 -29 9z"/>
<path d="M870 111 c0 -6 4 -12 8 -15 5 -3 9 1 9 9 0 8 -4 15 -9 15 -4 0 -8 -4
-8 -9z"/>
</g>
</svg>
